<svg version="1.1" id="Layer_1" xmlns="http://www.w3.org/2000/svg" xmlns:xlink="http://www.w3.org/1999/xlink" x="0px" y="0px"
	 width="100%" viewBox="0 0 74 58" enable-background="new 0 0 74 58" xml:space="preserve">
<path fill="#F3F3F3" opacity="1.000000" stroke="none" 
	d="
M57.002815,59.000000 
	C38.002342,59.000000 19.502417,59.000000 1.001868,59.000000 
	C1.001245,39.667576 1.001245,20.335150 1.000623,1.002044 
	C25.665657,1.001363 50.331314,1.001363 74.997726,1.000681 
	C74.998489,20.332247 74.998489,39.664494 74.999245,58.998367 
	C69.167786,59.000000 63.335575,59.000000 57.002815,59.000000 
M42.171772,24.728607 
	C42.600384,23.884026 43.028996,23.039446 43.684475,21.747824 
	C49.689854,28.959156 55.374573,35.878063 61.176640,42.697124 
	C62.955383,44.787651 64.856972,47.644951 68.117943,44.870319 
	C70.985931,42.430077 71.212364,39.126129 69.008720,36.380032 
	C62.763969,28.598036 56.288078,20.995237 49.720413,13.481658 
	C46.997517,10.366598 44.353928,11.436127 42.579155,14.708217 
	C41.238964,17.179085 40.246635,19.838634 38.439602,22.125338 
	C35.770763,19.157146 33.243774,16.040089 30.362635,13.294696 
	C29.224667,12.210344 26.881788,11.049881 25.829115,11.534586 
	C24.296015,12.240501 22.651218,14.325189 22.490295,15.963129 
	C22.305624,17.842760 23.317116,20.133734 24.463789,21.793694 
	C27.554962,26.268578 30.994202,30.503021 33.886379,35.561928 
	C33.438236,36.254250 32.990093,36.946571 32.217018,38.140881 
	C26.440517,31.249111 20.859724,24.484634 15.144521,17.835691 
	C13.386751,15.790739 11.513591,12.729893 8.230425,15.302465 
	C5.174960,17.696623 4.682846,20.991585 7.209223,24.092482 
	C13.403096,31.694891 19.665020,39.247417 26.105925,46.640228 
	C28.622282,49.528481 31.472267,49.248577 33.317661,45.711319 
	C34.610664,43.232891 35.461163,40.523605 37.133408,38.079361 
	C39.926281,41.082108 42.506741,44.335522 45.613350,46.968021 
	C46.911964,48.068443 50.035061,48.787544 51.068367,48.008480 
	C52.568195,46.877693 53.604500,44.218475 53.564030,42.237141 
	C53.529438,40.543518 51.796524,38.817154 50.646481,37.227009 
	C47.763790,33.241154 44.785675,29.324312 42.171772,24.728607 
z"/>
<path fill="#26A3DB" opacity="1.000000" stroke="none" 
	d="
M34.295303,34.832890 
	C30.994202,30.503021 27.554962,26.268578 24.463789,21.793694 
	C23.317116,20.133734 22.305624,17.842760 22.490295,15.963129 
	C22.651218,14.325189 24.296015,12.240501 25.829115,11.534586 
	C26.881788,11.049881 29.224667,12.210344 30.362635,13.294696 
	C33.243774,16.040089 35.770763,19.157146 38.899628,22.541878 
	C40.188385,23.765543 41.017109,24.572666 41.845837,25.379787 
	C44.785675,29.324312 47.763790,33.241154 50.646481,37.227009 
	C51.796524,38.817154 53.529438,40.543518 53.564030,42.237141 
	C53.604500,44.218475 52.568195,46.877693 51.068367,48.008480 
	C50.035061,48.787544 46.911964,48.068443 45.613350,46.968021 
	C42.506741,44.335522 39.926281,41.082108 36.764618,37.665051 
	C35.695656,36.444790 34.995480,35.638840 34.295303,34.832890 
z"/>
<path fill="#0F2D4E" opacity="1.000000" stroke="none" 
	d="
M34.090843,35.197411 
	C34.995480,35.638840 35.695656,36.444790 36.452553,37.584080 
	C35.461163,40.523605 34.610664,43.232891 33.317661,45.711319 
	C31.472267,49.248577 28.622282,49.528481 26.105925,46.640228 
	C19.665020,39.247417 13.403096,31.694891 7.209223,24.092482 
	C4.682846,20.991585 5.174960,17.696623 8.230425,15.302465 
	C11.513591,12.729893 13.386751,15.790739 15.144521,17.835691 
	C20.859724,24.484634 26.440517,31.249111 32.217018,38.140881 
	C32.990093,36.946571 33.438236,36.254250 34.090843,35.197411 
z"/>
<path fill="#0D2C4C" opacity="1.000000" stroke="none" 
	d="
M42.008804,25.054197 
	C41.017109,24.572666 40.188385,23.765543 39.229568,22.686314 
	C40.246635,19.838634 41.238964,17.179085 42.579155,14.708217 
	C44.353928,11.436127 46.997517,10.366598 49.720413,13.481658 
	C56.288078,20.995237 62.763969,28.598036 69.008720,36.380032 
	C71.212364,39.126129 70.985931,42.430077 68.117943,44.870319 
	C64.856972,47.644951 62.955383,44.787651 61.176640,42.697124 
	C55.374573,35.878063 49.689854,28.959156 43.684475,21.747824 
	C43.028996,23.039446 42.600384,23.884026 42.008804,25.054197 
z"/>
</svg>